<svg xmlns="http://www.w3.org/2000/svg" width="438.116" height="393.499" viewBox="0 0 438.116 393.499">
  <g id="Dots" transform="translate(-38.328 -33.542)">
    <g id="Pink" transform="matrix(-0.105, -0.995, 0.995, -0.105, 41.901, 467.14)">
      <g id="Pop-pic-overlay" transform="matrix(-0.602, 0.799, -0.799, -0.602, 395.713, 155.452)">
        <g id="Ellipse_35" data-name="Ellipse 35" transform="translate(64.624 108.704)" fill="rgba(250,71,255,0.72)" stroke="#707070" stroke-width="1">
          <ellipse cx="0.724" cy="0.724" rx="0.724" ry="0.724" stroke="none"/>
          <ellipse cx="0.724" cy="0.724" rx="0.224" ry="0.224" fill="none"/>
        </g>
        <circle id="Ellipse_36" data-name="Ellipse 36" cx="12.316" cy="12.316" r="12.316" transform="translate(91.222 181.14)" fill="rgba(250,71,255,0.72)"/>
        <ellipse id="Ellipse_37" data-name="Ellipse 37" cx="7.245" cy="7.245" rx="7.245" ry="7.245" transform="translate(96.108 127.541)" fill="rgba(250,71,255,0.72)"/>
        <ellipse id="Ellipse_38" data-name="Ellipse 38" cx="5.796" cy="5.071" rx="5.796" ry="5.071" transform="translate(66.666 170.997)" fill="rgba(250,71,255,0.72)"/>
        <ellipse id="Ellipse_39" data-name="Ellipse 39" cx="13.04" cy="13.765" rx="13.04" ry="13.765" transform="translate(47.173 143.469)" fill="rgba(250,71,255,0.72)"/>
        <ellipse id="Ellipse_40" data-name="Ellipse 40" cx="7.245" cy="7.245" rx="7.245" ry="7.245" transform="translate(73.35 127.538)" fill="rgba(250,71,255,0.72)"/>
        <ellipse id="Ellipse_41" data-name="Ellipse 41" cx="11.591" cy="11.591" rx="11.591" ry="11.591" transform="translate(49.904 72.485)" fill="rgba(250,71,255,0.72)"/>
        <ellipse id="Ellipse_42" data-name="Ellipse 42" cx="7.245" cy="7.245" rx="7.245" ry="7.245" transform="translate(17.788 113.043)" fill="rgba(250,71,255,0.72)"/>
        <ellipse id="Ellipse_43" data-name="Ellipse 43" cx="11.996" cy="11.995" rx="11.996" ry="11.995" transform="translate(183.546 191.078) rotate(83)" fill="rgba(250,71,255,0.72)"/>
        <ellipse id="Ellipse_44" data-name="Ellipse 44" cx="7.497" cy="7.497" rx="7.497" ry="7.497" transform="translate(23.016 188.445) rotate(83)" fill="rgba(250,71,255,0.72)"/>
        <ellipse id="Ellipse_45" data-name="Ellipse 45" cx="5.498" cy="5.498" rx="5.498" ry="5.498" transform="translate(188.818 231.413) rotate(83)" fill="rgba(250,71,255,0.72)"/>
        <ellipse id="Ellipse_46" data-name="Ellipse 46" cx="13.495" cy="13.494" rx="13.495" ry="13.494" transform="translate(199.396 146.76) rotate(83)" fill="rgba(250,71,255,0.72)"/>
        <ellipse id="Ellipse_47" data-name="Ellipse 47" cx="7.497" cy="7.497" rx="7.497" ry="7.497" transform="translate(29.875 238.083) rotate(83)" fill="rgba(250,71,255,0.72)"/>
        <ellipse id="Ellipse_48" data-name="Ellipse 48" cx="11.996" cy="11.995" rx="11.996" ry="11.995" transform="translate(84.469 189.691) rotate(83)" fill="rgba(250,71,255,0.72)"/>
        <ellipse id="Ellipse_49" data-name="Ellipse 49" cx="7.497" cy="7.497" rx="7.497" ry="7.497" transform="translate(30.172 117.161) rotate(83)" fill="rgba(250,71,255,0.72)"/>
        <ellipse id="Ellipse_50" data-name="Ellipse 50" cx="11.995" cy="11.998" rx="11.995" ry="11.998" transform="translate(59.577 111.632) rotate(-60)" fill="rgba(250,71,255,0.72)"/>
        <ellipse id="Ellipse_51" data-name="Ellipse 51" cx="7.497" cy="7.499" rx="7.497" ry="7.499" transform="translate(9.169 81.17) rotate(-60)" fill="rgba(250,71,255,0.72)"/>
        <ellipse id="Ellipse_52" data-name="Ellipse 52" cx="5.498" cy="5.499" rx="5.498" ry="5.499" transform="translate(72.487 69.773) rotate(-60)" fill="rgba(250,71,255,0.72)"/>
        <ellipse id="Ellipse_53" data-name="Ellipse 53" cx="13.494" cy="13.497" rx="13.494" ry="13.497" transform="translate(0.104 127.26) rotate(-60)" fill="rgba(250,71,255,0.72)"/>
        <ellipse id="Ellipse_54" data-name="Ellipse 54" cx="7.497" cy="7.499" rx="7.497" ry="7.499" transform="translate(37.309 37.885) rotate(-60)" fill="rgba(250,71,255,0.72)"/>
        <ellipse id="Ellipse_55" data-name="Ellipse 55" cx="11.995" cy="11.998" rx="11.995" ry="11.998" transform="translate(167.271 46.756) rotate(-60)" fill="rgba(250,71,255,0.72)"/>
        <ellipse id="Ellipse_56" data-name="Ellipse 56" cx="7.497" cy="7.499" rx="7.497" ry="7.499" transform="translate(169.138 134.299) rotate(-60)" fill="rgba(250,71,255,0.72)"/>
        <ellipse id="Ellipse_57" data-name="Ellipse 57" cx="11.999" cy="11.998" rx="11.999" ry="11.998" transform="translate(271.165 204.439) rotate(-171)" fill="rgba(250,71,255,0.72)"/>
        <ellipse id="Ellipse_58" data-name="Ellipse 58" cx="7.5" cy="7.499" rx="7.5" ry="7.499" transform="translate(87.348 257.122) rotate(-171)" fill="rgba(250,71,255,0.72)"/>
        <ellipse id="Ellipse_59" data-name="Ellipse 59" cx="5.5" cy="5.499" rx="5.5" ry="5.499" transform="translate(69.462 208.702) rotate(-171)" fill="rgba(250,71,255,0.72)"/>
        <ellipse id="Ellipse_60" data-name="Ellipse 60" cx="13.499" cy="13.498" rx="13.499" ry="13.498" transform="translate(304.724 248.203) rotate(-171)" fill="rgba(250,71,255,0.72)"/>
        <ellipse id="Ellipse_61" data-name="Ellipse 61" cx="7.5" cy="7.499" rx="7.5" ry="7.499" transform="translate(111.423 249.301) rotate(-171)" fill="rgba(250,71,255,0.72)"/>
        <ellipse id="Ellipse_62" data-name="Ellipse 62" cx="11.999" cy="11.998" rx="11.999" ry="11.998" transform="translate(271.165 27.456) rotate(-171)" fill="rgba(250,71,255,0.72)"/>
        <ellipse id="Ellipse_63" data-name="Ellipse 63" cx="7.5" cy="7.499" rx="7.5" ry="7.499" transform="translate(87.323 80.158) rotate(-171)" fill="rgba(250,71,255,0.72)"/>
        <ellipse id="Ellipse_64" data-name="Ellipse 64" cx="5.5" cy="5.499" rx="5.5" ry="5.499" transform="translate(69.436 31.75) rotate(-171)" fill="rgba(250,71,255,0.72)"/>
        <ellipse id="Ellipse_65" data-name="Ellipse 65" cx="13.499" cy="13.498" rx="13.499" ry="13.498" transform="translate(304.724 71.273) rotate(-171)" fill="rgba(250,71,255,0.72)"/>
        <ellipse id="Ellipse_66" data-name="Ellipse 66" cx="7.5" cy="7.499" rx="7.5" ry="7.499" transform="translate(111.397 72.342) rotate(-171)" fill="rgba(250,71,255,0.72)"/>
      </g>
      <g id="Pop-pic-overlay-2" data-name="Pop-pic-overlay" transform="translate(218.33 481.893) rotate(-135)">
        <g id="Ellipse_35-2" data-name="Ellipse 35" transform="translate(64.583 108.725)" fill="rgba(250,71,255,0.72)" stroke="#707070" stroke-width="1">
          <ellipse cx="0.724" cy="0.724" rx="0.724" ry="0.724" stroke="none"/>
          <ellipse cx="0.724" cy="0.724" rx="0.224" ry="0.224" fill="none"/>
        </g>
        <ellipse id="Ellipse_36-2" data-name="Ellipse 36" cx="12.314" cy="12.314" rx="12.314" ry="12.314" transform="translate(91.156 181.181)" fill="rgba(250,71,255,0.72)"/>
        <ellipse id="Ellipse_37-2" data-name="Ellipse 37" cx="7.244" cy="7.244" rx="7.244" ry="7.244" transform="translate(96.053 127.562)" fill="rgba(250,71,255,0.72)"/>
        <ellipse id="Ellipse_38-2" data-name="Ellipse 38" cx="5.795" cy="5.07" rx="5.795" ry="5.07" transform="translate(66.611 171.038)" fill="rgba(250,71,255,0.72)"/>
        <ellipse id="Ellipse_39-2" data-name="Ellipse 39" cx="13.038" cy="13.763" rx="13.038" ry="13.763" transform="translate(47.128 143.506)" fill="rgba(250,71,255,0.72)"/>
        <ellipse id="Ellipse_40-2" data-name="Ellipse 40" cx="7.244" cy="7.244" rx="7.244" ry="7.244" transform="translate(73.302 127.563)" fill="rgba(250,71,255,0.72)"/>
        <ellipse id="Ellipse_41-2" data-name="Ellipse 41" cx="11.59" cy="11.59" rx="11.59" ry="11.59" transform="translate(49.874 72.581)" fill="rgba(250,71,255,0.72)"/>
        <ellipse id="Ellipse_42-2" data-name="Ellipse 42" cx="7.244" cy="7.244" rx="7.244" ry="7.244" transform="translate(17.753 113.076)" fill="rgba(250,71,255,0.72)"/>
        <ellipse id="Ellipse_43-2" data-name="Ellipse 43" cx="11.999" cy="11.999" rx="11.999" ry="11.999" transform="translate(183.459 191.102) rotate(83)" fill="rgba(250,71,255,0.72)"/>
        <ellipse id="Ellipse_44-2" data-name="Ellipse 44" cx="7.499" cy="7.499" rx="7.499" ry="7.499" transform="translate(22.982 188.502) rotate(83)" fill="rgba(250,71,255,0.72)"/>
        <ellipse id="Ellipse_45-2" data-name="Ellipse 45" cx="5.499" cy="5.5" rx="5.499" ry="5.5" transform="translate(188.718 231.495) rotate(83)" fill="rgba(250,71,255,0.72)"/>
        <ellipse id="Ellipse_46-2" data-name="Ellipse 46" cx="13.498" cy="13.499" rx="13.498" ry="13.499" transform="translate(199.315 146.766) rotate(83)" fill="rgba(250,71,255,0.72)"/>
        <ellipse id="Ellipse_47-2" data-name="Ellipse 47" cx="7.499" cy="7.499" rx="7.499" ry="7.499" transform="translate(29.841 238.164) rotate(83)" fill="rgba(250,71,255,0.72)"/>
        <ellipse id="Ellipse_48-2" data-name="Ellipse 48" cx="11.999" cy="11.999" rx="11.999" ry="11.999" transform="translate(84.411 189.736) rotate(83)" fill="rgba(250,71,255,0.72)"/>
        <ellipse id="Ellipse_49-2" data-name="Ellipse 49" cx="7.499" cy="7.499" rx="7.499" ry="7.499" transform="translate(30.138 117.193) rotate(83)" fill="rgba(250,71,255,0.72)"/>
        <ellipse id="Ellipse_50-2" data-name="Ellipse 50" cx="11.999" cy="11.998" rx="11.999" ry="11.998" transform="translate(59.535 111.651) rotate(-60)" fill="rgba(250,71,255,0.72)"/>
        <ellipse id="Ellipse_51-2" data-name="Ellipse 51" cx="7.499" cy="7.498" rx="7.499" ry="7.498" transform="translate(9.131 81.274) rotate(-60)" fill="rgba(250,71,255,0.72)"/>
        <ellipse id="Ellipse_52-2" data-name="Ellipse 52" cx="5.5" cy="5.499" rx="5.5" ry="5.499" transform="translate(72.451 69.86) rotate(-60)" fill="rgba(250,71,255,0.72)"/>
        <ellipse id="Ellipse_53-2" data-name="Ellipse 53" cx="13.499" cy="13.497" rx="13.499" ry="13.497" transform="translate(-0.035 127.296) rotate(-60)" fill="rgba(250,71,255,0.72)"/>
        <ellipse id="Ellipse_54-2" data-name="Ellipse 54" cx="7.499" cy="7.498" rx="7.499" ry="7.498" transform="translate(37.272 37.969) rotate(-60)" fill="rgba(250,71,255,0.72)"/>
        <ellipse id="Ellipse_55-2" data-name="Ellipse 55" cx="11.999" cy="11.998" rx="11.999" ry="11.998" transform="translate(167.211 46.831) rotate(-60)" fill="rgba(250,71,255,0.72)"/>
        <ellipse id="Ellipse_56-2" data-name="Ellipse 56" cx="7.499" cy="7.498" rx="7.499" ry="7.498" transform="translate(169.061 134.303) rotate(-60)" fill="rgba(250,71,255,0.72)"/>
        <ellipse id="Ellipse_57-2" data-name="Ellipse 57" cx="11.997" cy="11.997" rx="11.997" ry="11.997" transform="translate(270.992 204.441) rotate(-171)" fill="rgba(250,71,255,0.72)"/>
        <ellipse id="Ellipse_58-2" data-name="Ellipse 58" cx="7.498" cy="7.498" rx="7.498" ry="7.498" transform="translate(87.273 257.205) rotate(-171)" fill="rgba(250,71,255,0.72)"/>
        <ellipse id="Ellipse_59-2" data-name="Ellipse 59" cx="5.499" cy="5.499" rx="5.499" ry="5.499" transform="translate(69.401 208.752) rotate(-171)" fill="rgba(250,71,255,0.72)"/>
        <ellipse id="Ellipse_60-2" data-name="Ellipse 60" cx="13.496" cy="13.497" rx="13.496" ry="13.497" transform="translate(304.551 248.285) rotate(-171)" fill="rgba(250,71,255,0.72)"/>
        <ellipse id="Ellipse_61-2" data-name="Ellipse 61" cx="7.498" cy="7.498" rx="7.498" ry="7.498" transform="translate(111.342 249.384) rotate(-171)" fill="rgba(250,71,255,0.72)"/>
        <ellipse id="Ellipse_62-2" data-name="Ellipse 62" cx="11.997" cy="11.997" rx="11.997" ry="11.997" transform="translate(270.992 27.517) rotate(-171)" fill="rgba(250,71,255,0.72)"/>
        <ellipse id="Ellipse_63-2" data-name="Ellipse 63" cx="7.498" cy="7.498" rx="7.498" ry="7.498" transform="translate(87.286 80.244) rotate(-171)" fill="rgba(250,71,255,0.72)"/>
        <ellipse id="Ellipse_64-2" data-name="Ellipse 64" cx="5.499" cy="5.499" rx="5.499" ry="5.499" transform="translate(69.414 31.829) rotate(-171)" fill="rgba(250,71,255,0.72)"/>
        <ellipse id="Ellipse_65-2" data-name="Ellipse 65" cx="13.496" cy="13.497" rx="13.496" ry="13.497" transform="translate(304.551 71.305) rotate(-171)" fill="rgba(250,71,255,0.72)"/>
        <ellipse id="Ellipse_66-2" data-name="Ellipse 66" cx="7.498" cy="7.498" rx="7.498" ry="7.498" transform="translate(111.355 72.42) rotate(-171)" fill="rgba(250,71,255,0.72)"/>
      </g>
    </g>
    <g id="Blue" transform="matrix(-0.105, -0.995, 0.995, -0.105, 53.43, 465.928)">
      <g id="Pop-pic-overlay-3" data-name="Pop-pic-overlay" transform="matrix(-0.602, 0.799, -0.799, -0.602, 395.713, 155.452)">
        <g id="Ellipse_35-3" data-name="Ellipse 35" transform="translate(64.605 108.68)" fill="rgba(0,221,199,0.73)" stroke="#707070" stroke-width="1">
          <ellipse cx="0.724" cy="0.724" rx="0.724" ry="0.724" stroke="none"/>
          <ellipse cx="0.724" cy="0.724" rx="0.224" ry="0.224" fill="none"/>
        </g>
        <circle id="Ellipse_36-3" data-name="Ellipse 36" cx="12.316" cy="12.316" r="12.316" transform="translate(91.192 181.099)" fill="rgba(0,221,199,0.73)"/>
        <ellipse id="Ellipse_37-3" data-name="Ellipse 37" cx="7.245" cy="7.245" rx="7.245" ry="7.245" transform="translate(96.084 127.509)" fill="rgba(0,221,199,0.73)"/>
        <ellipse id="Ellipse_38-3" data-name="Ellipse 38" cx="5.796" cy="5.071" rx="5.796" ry="5.071" transform="translate(66.641 170.962)" fill="rgba(0,221,199,0.73)"/>
        <ellipse id="Ellipse_39-3" data-name="Ellipse 39" cx="13.04" cy="13.765" rx="13.04" ry="13.765" transform="translate(47.151 143.439)" fill="rgba(0,221,199,0.73)"/>
        <ellipse id="Ellipse_40-3" data-name="Ellipse 40" cx="7.245" cy="7.245" rx="7.245" ry="7.245" transform="translate(73.328 127.508)" fill="rgba(0,221,199,0.73)"/>
        <ellipse id="Ellipse_41-3" data-name="Ellipse 41" cx="11.591" cy="11.591" rx="11.591" ry="11.591" transform="translate(49.891 72.467)" fill="rgba(0,221,199,0.73)"/>
        <ellipse id="Ellipse_42-3" data-name="Ellipse 42" cx="7.245" cy="7.245" rx="7.245" ry="7.245" transform="translate(17.788 113.023)" fill="rgba(0,221,199,0.73)"/>
        <ellipse id="Ellipse_43-3" data-name="Ellipse 43" cx="11.998" cy="11.998" rx="11.998" ry="11.998" transform="translate(183.511 191.024) rotate(83)" fill="rgba(0,221,199,0.73)"/>
        <ellipse id="Ellipse_44-3" data-name="Ellipse 44" cx="7.499" cy="7.499" rx="7.499" ry="7.499" transform="translate(23.017 188.412) rotate(83)" fill="rgba(0,221,199,0.73)"/>
        <ellipse id="Ellipse_45-3" data-name="Ellipse 45" cx="5.499" cy="5.499" rx="5.499" ry="5.499" transform="translate(188.776 231.305) rotate(83)" fill="rgba(0,221,199,0.73)"/>
        <ellipse id="Ellipse_46-3" data-name="Ellipse 46" cx="13.498" cy="13.498" rx="13.498" ry="13.498" transform="translate(199.365 146.712) rotate(83)" fill="rgba(0,221,199,0.73)"/>
        <ellipse id="Ellipse_47-3" data-name="Ellipse 47" cx="7.499" cy="7.499" rx="7.499" ry="7.499" transform="translate(29.876 237.975) rotate(83)" fill="rgba(0,221,199,0.73)"/>
        <ellipse id="Ellipse_48-3" data-name="Ellipse 48" cx="11.998" cy="11.998" rx="11.998" ry="11.998" transform="translate(84.444 189.649) rotate(83)" fill="rgba(0,221,199,0.73)"/>
        <ellipse id="Ellipse_49-3" data-name="Ellipse 49" cx="7.499" cy="7.499" rx="7.499" ry="7.499" transform="translate(30.173 117.138) rotate(83)" fill="rgba(0,221,199,0.73)"/>
        <ellipse id="Ellipse_50-3" data-name="Ellipse 50" cx="11.998" cy="11.999" rx="11.998" ry="11.999" transform="translate(59.558 111.612) rotate(-60)" fill="rgba(0,221,199,0.73)"/>
        <ellipse id="Ellipse_51-3" data-name="Ellipse 51" cx="7.499" cy="7.499" rx="7.499" ry="7.499" transform="translate(9.167 81.159) rotate(-60)" fill="rgba(0,221,199,0.73)"/>
        <ellipse id="Ellipse_52-3" data-name="Ellipse 52" cx="5.499" cy="5.499" rx="5.499" ry="5.499" transform="translate(72.472 69.756) rotate(-60)" fill="rgba(0,221,199,0.73)"/>
        <ellipse id="Ellipse_53-3" data-name="Ellipse 53" cx="13.498" cy="13.498" rx="13.498" ry="13.498" transform="translate(0.009 127.244) rotate(-60)" fill="rgba(0,221,199,0.73)"/>
        <ellipse id="Ellipse_54-3" data-name="Ellipse 54" cx="7.499" cy="7.499" rx="7.499" ry="7.499" transform="translate(37.307 37.886) rotate(-60)" fill="rgba(0,221,199,0.73)"/>
        <ellipse id="Ellipse_55-3" data-name="Ellipse 55" cx="11.998" cy="11.999" rx="11.998" ry="11.999" transform="translate(167.248 46.758) rotate(-60)" fill="rgba(0,221,199,0.73)"/>
        <ellipse id="Ellipse_56-3" data-name="Ellipse 56" cx="7.499" cy="7.499" rx="7.499" ry="7.499" transform="translate(169.106 134.261) rotate(-60)" fill="rgba(0,221,199,0.73)"/>
        <ellipse id="Ellipse_57-3" data-name="Ellipse 57" cx="11.999" cy="11.999" rx="11.999" ry="11.999" transform="translate(271.084 204.38) rotate(-171)" fill="rgba(0,221,199,0.73)"/>
        <ellipse id="Ellipse_58-3" data-name="Ellipse 58" cx="7.499" cy="7.499" rx="7.499" ry="7.499" transform="translate(87.314 257.016) rotate(-171)" fill="rgba(0,221,199,0.73)"/>
        <ellipse id="Ellipse_59-3" data-name="Ellipse 59" cx="5.499" cy="5.499" rx="5.499" ry="5.499" transform="translate(69.434 208.664) rotate(-171)" fill="rgba(0,221,199,0.73)"/>
        <ellipse id="Ellipse_60-3" data-name="Ellipse 60" cx="13.499" cy="13.498" rx="13.499" ry="13.498" transform="translate(304.643 248.097) rotate(-171)" fill="rgba(0,221,199,0.73)"/>
        <ellipse id="Ellipse_61-3" data-name="Ellipse 61" cx="7.499" cy="7.499" rx="7.499" ry="7.499" transform="translate(111.387 249.195) rotate(-171)" fill="rgba(0,221,199,0.73)"/>
        <ellipse id="Ellipse_62-3" data-name="Ellipse 62" cx="11.999" cy="11.999" rx="11.999" ry="11.999" transform="translate(271.084 27.456) rotate(-171)" fill="rgba(0,221,199,0.73)"/>
        <ellipse id="Ellipse_63-3" data-name="Ellipse 63" cx="7.499" cy="7.499" rx="7.499" ry="7.499" transform="translate(87.309 80.14) rotate(-171)" fill="rgba(0,221,199,0.73)"/>
        <ellipse id="Ellipse_64-3" data-name="Ellipse 64" cx="5.499" cy="5.499" rx="5.499" ry="5.499" transform="translate(69.429 31.75) rotate(-171)" fill="rgba(0,221,199,0.73)"/>
        <ellipse id="Ellipse_65-3" data-name="Ellipse 65" cx="13.499" cy="13.498" rx="13.499" ry="13.498" transform="translate(304.643 71.234) rotate(-171)" fill="rgba(0,221,199,0.73)"/>
        <ellipse id="Ellipse_66-3" data-name="Ellipse 66" cx="7.499" cy="7.499" rx="7.499" ry="7.499" transform="translate(111.382 72.322) rotate(-171)" fill="rgba(0,221,199,0.73)"/>
      </g>
      <g id="Pop-pic-overlay-4" data-name="Pop-pic-overlay" transform="translate(218.367 481.893) rotate(-135)">
        <g id="Ellipse_35-4" data-name="Ellipse 35" transform="translate(64.588 108.721)" fill="rgba(0,221,199,0.73)" stroke="#707070" stroke-width="1">
          <ellipse cx="0.724" cy="0.724" rx="0.724" ry="0.724" stroke="none"/>
          <ellipse cx="0.724" cy="0.724" rx="0.224" ry="0.224" fill="none"/>
        </g>
        <ellipse id="Ellipse_36-4" data-name="Ellipse 36" cx="12.316" cy="12.316" rx="12.316" ry="12.316" transform="translate(91.166 181.172)" fill="rgba(0,221,199,0.73)"/>
        <circle id="Ellipse_37-4" data-name="Ellipse 37" cx="7.245" cy="7.245" r="7.245" transform="translate(96.057 127.559)" fill="rgba(0,221,199,0.73)"/>
        <ellipse id="Ellipse_38-4" data-name="Ellipse 38" cx="5.796" cy="5.071" rx="5.796" ry="5.071" transform="translate(66.622 171.028)" fill="rgba(0,221,199,0.73)"/>
        <ellipse id="Ellipse_39-4" data-name="Ellipse 39" cx="13.04" cy="13.765" rx="13.04" ry="13.765" transform="translate(47.138 143.497)" fill="rgba(0,221,199,0.73)"/>
        <circle id="Ellipse_40-4" data-name="Ellipse 40" cx="7.245" cy="7.245" r="7.245" transform="translate(73.308 127.559)" fill="rgba(0,221,199,0.73)"/>
        <ellipse id="Ellipse_41-4" data-name="Ellipse 41" cx="11.591" cy="11.591" rx="11.591" ry="11.591" transform="translate(49.877 72.523)" fill="rgba(0,221,199,0.73)"/>
        <circle id="Ellipse_42-4" data-name="Ellipse 42" cx="7.245" cy="7.245" r="7.245" transform="translate(17.79 113.067)" fill="rgba(0,221,199,0.73)"/>
        <ellipse id="Ellipse_43-4" data-name="Ellipse 43" cx="11.998" cy="11.998" rx="11.998" ry="11.998" transform="translate(183.464 191.102) rotate(83)" fill="rgba(0,221,199,0.73)"/>
        <ellipse id="Ellipse_44-4" data-name="Ellipse 44" cx="7.499" cy="7.499" rx="7.499" ry="7.499" transform="translate(23.02 188.486) rotate(83)" fill="rgba(0,221,199,0.73)"/>
        <ellipse id="Ellipse_45-4" data-name="Ellipse 45" cx="5.499" cy="5.499" rx="5.499" ry="5.499" transform="translate(188.725 231.461) rotate(83)" fill="rgba(0,221,199,0.73)"/>
        <ellipse id="Ellipse_46-4" data-name="Ellipse 46" cx="13.498" cy="13.498" rx="13.498" ry="13.498" transform="translate(199.313 146.772) rotate(83)" fill="rgba(0,221,199,0.73)"/>
        <ellipse id="Ellipse_47-4" data-name="Ellipse 47" cx="7.499" cy="7.499" rx="7.499" ry="7.499" transform="translate(29.879 238.131) rotate(83)" fill="rgba(0,221,199,0.73)"/>
        <ellipse id="Ellipse_48-4" data-name="Ellipse 48" cx="11.998" cy="11.998" rx="11.998" ry="11.998" transform="translate(84.426 189.725) rotate(83)" fill="rgba(0,221,199,0.73)"/>
        <ellipse id="Ellipse_49-4" data-name="Ellipse 49" cx="7.499" cy="7.499" rx="7.499" ry="7.499" transform="translate(30.176 117.184) rotate(83)" fill="rgba(0,221,199,0.73)"/>
        <ellipse id="Ellipse_50-4" data-name="Ellipse 50" cx="11.998" cy="11.999" rx="11.998" ry="11.999" transform="translate(59.54 111.649) rotate(-60)" fill="rgba(0,221,199,0.73)"/>
        <ellipse id="Ellipse_51-4" data-name="Ellipse 51" cx="7.499" cy="7.499" rx="7.499" ry="7.499" transform="translate(9.17 81.213) rotate(-60)" fill="rgba(0,221,199,0.73)"/>
        <ellipse id="Ellipse_52-4" data-name="Ellipse 52" cx="5.499" cy="5.499" rx="5.499" ry="5.499" transform="translate(72.451 69.807) rotate(-60)" fill="rgba(0,221,199,0.73)"/>
        <ellipse id="Ellipse_53-4" data-name="Ellipse 53" cx="13.498" cy="13.498" rx="13.498" ry="13.498" transform="translate(0.003 127.287) rotate(-60)" fill="rgba(0,221,199,0.73)"/>
        <ellipse id="Ellipse_54-4" data-name="Ellipse 54" cx="7.499" cy="7.499" rx="7.499" ry="7.499" transform="translate(37.31 37.915) rotate(-60)" fill="rgba(0,221,199,0.73)"/>
        <ellipse id="Ellipse_55-4" data-name="Ellipse 55" cx="11.998" cy="11.999" rx="11.998" ry="11.999" transform="translate(167.198 46.791) rotate(-60)" fill="rgba(0,221,199,0.73)"/>
        <ellipse id="Ellipse_56-4" data-name="Ellipse 56" cx="7.499" cy="7.499" rx="7.499" ry="7.499" transform="translate(169.057 134.309) rotate(-60)" fill="rgba(0,221,199,0.73)"/>
        <ellipse id="Ellipse_57-4" data-name="Ellipse 57" cx="11.999" cy="11.999" rx="11.999" ry="11.999" transform="translate(270.976 204.453) rotate(-171)" fill="rgba(0,221,199,0.73)"/>
        <ellipse id="Ellipse_58-4" data-name="Ellipse 58" cx="7.499" cy="7.499" rx="7.499" ry="7.499" transform="translate(87.293 257.172) rotate(-171)" fill="rgba(0,221,199,0.73)"/>
        <ellipse id="Ellipse_59-4" data-name="Ellipse 59" cx="5.499" cy="5.499" rx="5.499" ry="5.499" transform="translate(69.417 208.741) rotate(-171)" fill="rgba(0,221,199,0.73)"/>
        <ellipse id="Ellipse_60-4" data-name="Ellipse 60" cx="13.499" cy="13.498" rx="13.499" ry="13.498" transform="translate(304.536 248.253) rotate(-171)" fill="rgba(0,221,199,0.73)"/>
        <ellipse id="Ellipse_61-4" data-name="Ellipse 61" cx="7.499" cy="7.499" rx="7.499" ry="7.499" transform="translate(111.359 249.351) rotate(-171)" fill="rgba(0,221,199,0.73)"/>
        <ellipse id="Ellipse_62-4" data-name="Ellipse 62" cx="11.999" cy="11.999" rx="11.999" ry="11.999" transform="translate(270.976 27.491) rotate(-171)" fill="rgba(0,221,199,0.73)"/>
        <ellipse id="Ellipse_63-4" data-name="Ellipse 63" cx="7.499" cy="7.499" rx="7.499" ry="7.499" transform="translate(87.288 80.192) rotate(-171)" fill="rgba(0,221,199,0.73)"/>
        <ellipse id="Ellipse_64-4" data-name="Ellipse 64" cx="5.499" cy="5.499" rx="5.499" ry="5.499" transform="translate(69.412 31.779) rotate(-171)" fill="rgba(0,221,199,0.73)"/>
        <ellipse id="Ellipse_65-4" data-name="Ellipse 65" cx="13.499" cy="13.498" rx="13.499" ry="13.498" transform="translate(304.536 71.278) rotate(-171)" fill="rgba(0,221,199,0.73)"/>
        <ellipse id="Ellipse_66-4" data-name="Ellipse 66" cx="7.499" cy="7.499" rx="7.499" ry="7.499" transform="translate(111.354 72.371) rotate(-171)" fill="rgba(0,221,199,0.73)"/>
      </g>
    </g>
    <g id="Yellow" transform="matrix(-0.105, -0.995, 0.995, -0.105, 67.614, 448.411)">
      <g id="Pop-pic-overlay-5" data-name="Pop-pic-overlay" transform="matrix(-0.602, 0.799, -0.799, -0.602, 395.716, 154.637)">
        <g id="Ellipse_35-5" data-name="Ellipse 35" transform="translate(64.606 108.681)" fill="rgba(241,238,48,0.62)" stroke="#707070" stroke-width="1">
          <ellipse cx="0.724" cy="0.724" rx="0.724" ry="0.724" stroke="none"/>
          <ellipse cx="0.724" cy="0.724" rx="0.224" ry="0.224" fill="none"/>
        </g>
        <circle id="Ellipse_36-5" data-name="Ellipse 36" cx="12.316" cy="12.316" r="12.316" transform="translate(91.193 181.1)" fill="rgba(241,238,48,0.62)"/>
        <ellipse id="Ellipse_37-5" data-name="Ellipse 37" cx="7.245" cy="7.245" rx="7.245" ry="7.245" transform="translate(96.085 127.51)" fill="rgba(241,238,48,0.62)"/>
        <ellipse id="Ellipse_38-5" data-name="Ellipse 38" cx="5.796" cy="5.071" rx="5.796" ry="5.071" transform="translate(66.642 170.963)" fill="rgba(241,238,48,0.62)"/>
        <ellipse id="Ellipse_39-5" data-name="Ellipse 39" cx="13.04" cy="13.765" rx="13.04" ry="13.765" transform="translate(47.152 143.44)" fill="rgba(241,238,48,0.62)"/>
        <ellipse id="Ellipse_40-5" data-name="Ellipse 40" cx="7.245" cy="7.245" rx="7.245" ry="7.245" transform="translate(73.329 127.509)" fill="rgba(241,238,48,0.62)"/>
        <ellipse id="Ellipse_41-5" data-name="Ellipse 41" cx="11.591" cy="11.591" rx="11.591" ry="11.591" transform="translate(49.892 72.468)" fill="rgba(241,238,48,0.62)"/>
        <ellipse id="Ellipse_42-5" data-name="Ellipse 42" cx="7.245" cy="7.245" rx="7.245" ry="7.245" transform="translate(17.788 113.023)" fill="rgba(241,238,48,0.62)"/>
        <ellipse id="Ellipse_43-5" data-name="Ellipse 43" cx="11.998" cy="11.998" rx="11.998" ry="11.998" transform="translate(183.512 191.026) rotate(83)" fill="rgba(241,238,48,0.62)"/>
        <ellipse id="Ellipse_44-5" data-name="Ellipse 44" cx="7.499" cy="7.499" rx="7.499" ry="7.499" transform="translate(23.017 188.413) rotate(83)" fill="rgba(241,238,48,0.62)"/>
        <ellipse id="Ellipse_45-5" data-name="Ellipse 45" cx="5.499" cy="5.499" rx="5.499" ry="5.499" transform="translate(188.777 231.309) rotate(83)" fill="rgba(241,238,48,0.62)"/>
        <ellipse id="Ellipse_46-5" data-name="Ellipse 46" cx="13.498" cy="13.498" rx="13.498" ry="13.498" transform="translate(199.366 146.713) rotate(83)" fill="rgba(241,238,48,0.62)"/>
        <ellipse id="Ellipse_47-5" data-name="Ellipse 47" cx="7.499" cy="7.499" rx="7.499" ry="7.499" transform="translate(29.876 237.978) rotate(83)" fill="rgba(241,238,48,0.62)"/>
        <ellipse id="Ellipse_48-5" data-name="Ellipse 48" cx="11.998" cy="11.998" rx="11.998" ry="11.998" transform="translate(84.444 189.65) rotate(83)" fill="rgba(241,238,48,0.62)"/>
        <ellipse id="Ellipse_49-5" data-name="Ellipse 49" cx="7.499" cy="7.499" rx="7.499" ry="7.499" transform="translate(30.173 117.139) rotate(83)" fill="rgba(241,238,48,0.62)"/>
        <ellipse id="Ellipse_50-5" data-name="Ellipse 50" cx="11.998" cy="11.999" rx="11.998" ry="11.999" transform="translate(59.559 111.612) rotate(-60)" fill="rgba(241,238,48,0.62)"/>
        <ellipse id="Ellipse_51-5" data-name="Ellipse 51" cx="7.499" cy="7.499" rx="7.499" ry="7.499" transform="translate(9.167 81.159) rotate(-60)" fill="rgba(241,238,48,0.62)"/>
        <ellipse id="Ellipse_52-5" data-name="Ellipse 52" cx="5.499" cy="5.499" rx="5.499" ry="5.499" transform="translate(72.473 69.757) rotate(-60)" fill="rgba(241,238,48,0.62)"/>
        <ellipse id="Ellipse_53-5" data-name="Ellipse 53" cx="13.498" cy="13.498" rx="13.498" ry="13.498" transform="translate(0.012 127.245) rotate(-60)" fill="rgba(241,238,48,0.62)"/>
        <ellipse id="Ellipse_54-5" data-name="Ellipse 54" cx="7.499" cy="7.499" rx="7.499" ry="7.499" transform="translate(37.308 37.886) rotate(-60)" fill="rgba(241,238,48,0.62)"/>
        <ellipse id="Ellipse_55-5" data-name="Ellipse 55" cx="11.998" cy="11.999" rx="11.998" ry="11.999" transform="translate(167.249 46.758) rotate(-60)" fill="rgba(241,238,48,0.62)"/>
        <ellipse id="Ellipse_56-5" data-name="Ellipse 56" cx="7.499" cy="7.499" rx="7.499" ry="7.499" transform="translate(169.107 134.262) rotate(-60)" fill="rgba(241,238,48,0.62)"/>
        <ellipse id="Ellipse_57-5" data-name="Ellipse 57" cx="11.999" cy="11.999" rx="11.999" ry="11.999" transform="translate(271.086 204.382) rotate(-171)" fill="rgba(241,238,48,0.62)"/>
        <ellipse id="Ellipse_58-5" data-name="Ellipse 58" cx="7.499" cy="7.499" rx="7.499" ry="7.499" transform="translate(87.315 257.02) rotate(-171)" fill="rgba(241,238,48,0.62)"/>
        <ellipse id="Ellipse_59-5" data-name="Ellipse 59" cx="5.499" cy="5.499" rx="5.499" ry="5.499" transform="translate(69.435 208.666) rotate(-171)" fill="rgba(241,238,48,0.62)"/>
        <ellipse id="Ellipse_60-5" data-name="Ellipse 60" cx="13.499" cy="13.498" rx="13.499" ry="13.498" transform="translate(304.646 248.101) rotate(-171)" fill="rgba(241,238,48,0.62)"/>
        <ellipse id="Ellipse_61-5" data-name="Ellipse 61" cx="7.499" cy="7.499" rx="7.499" ry="7.499" transform="translate(111.388 249.199) rotate(-171)" fill="rgba(241,238,48,0.62)"/>
        <ellipse id="Ellipse_62-5" data-name="Ellipse 62" cx="11.999" cy="11.999" rx="11.999" ry="11.999" transform="translate(271.087 27.456) rotate(-171)" fill="rgba(241,238,48,0.62)"/>
        <ellipse id="Ellipse_63-5" data-name="Ellipse 63" cx="7.499" cy="7.499" rx="7.499" ry="7.499" transform="translate(87.309 80.14) rotate(-171)" fill="rgba(241,238,48,0.62)"/>
        <ellipse id="Ellipse_64-5" data-name="Ellipse 64" cx="5.499" cy="5.499" rx="5.499" ry="5.499" transform="translate(69.429 31.75) rotate(-171)" fill="rgba(241,238,48,0.62)"/>
        <ellipse id="Ellipse_65-5" data-name="Ellipse 65" cx="13.499" cy="13.498" rx="13.499" ry="13.498" transform="translate(304.646 71.236) rotate(-171)" fill="rgba(241,238,48,0.62)"/>
        <ellipse id="Ellipse_66-5" data-name="Ellipse 66" cx="7.499" cy="7.499" rx="7.499" ry="7.499" transform="translate(111.382 72.323) rotate(-171)" fill="rgba(241,238,48,0.62)"/>
      </g>
      <g id="Pop-pic-overlay-6" data-name="Pop-pic-overlay" transform="translate(218.369 481.893) rotate(-135)">
        <g id="Ellipse_35-6" data-name="Ellipse 35" transform="translate(64.594 108.728)" fill="rgba(241,238,48,0.62)" stroke="#707070" stroke-width="1">
          <ellipse cx="0.724" cy="0.724" rx="0.724" ry="0.724" stroke="none"/>
          <ellipse cx="0.724" cy="0.724" rx="0.224" ry="0.224" fill="none"/>
        </g>
        <ellipse id="Ellipse_36-6" data-name="Ellipse 36" cx="12.316" cy="12.316" rx="12.316" ry="12.316" transform="translate(91.176 181.183)" fill="rgba(241,238,48,0.62)"/>
        <circle id="Ellipse_37-6" data-name="Ellipse 37" cx="7.245" cy="7.245" r="7.245" transform="translate(96.065 127.568)" fill="rgba(241,238,48,0.62)"/>
        <ellipse id="Ellipse_38-6" data-name="Ellipse 38" cx="5.796" cy="5.071" rx="5.796" ry="5.071" transform="translate(66.631 171.038)" fill="rgba(241,238,48,0.62)"/>
        <ellipse id="Ellipse_39-6" data-name="Ellipse 39" cx="13.04" cy="13.765" rx="13.04" ry="13.765" transform="translate(47.145 143.505)" fill="rgba(241,238,48,0.62)"/>
        <circle id="Ellipse_40-6" data-name="Ellipse 40" cx="7.245" cy="7.245" r="7.245" transform="translate(73.315 127.566)" fill="rgba(241,238,48,0.62)"/>
        <ellipse id="Ellipse_41-6" data-name="Ellipse 41" cx="11.591" cy="11.591" rx="11.591" ry="11.591" transform="translate(49.881 72.558)" fill="rgba(241,238,48,0.62)"/>
        <circle id="Ellipse_42-6" data-name="Ellipse 42" cx="7.245" cy="7.245" r="7.245" transform="translate(17.793 113.072)" fill="rgba(241,238,48,0.62)"/>
        <ellipse id="Ellipse_43-6" data-name="Ellipse 43" cx="11.997" cy="11.997" rx="11.997" ry="11.997" transform="translate(183.477 191.116) rotate(83)" fill="rgba(241,238,48,0.62)"/>
        <ellipse id="Ellipse_44-6" data-name="Ellipse 44" cx="7.498" cy="7.498" rx="7.498" ry="7.498" transform="translate(23.022 188.495) rotate(83)" fill="rgba(241,238,48,0.62)"/>
        <ellipse id="Ellipse_45-6" data-name="Ellipse 45" cx="5.499" cy="5.499" rx="5.499" ry="5.499" transform="translate(188.741 231.495) rotate(83)" fill="rgba(241,238,48,0.62)"/>
        <ellipse id="Ellipse_46-6" data-name="Ellipse 46" cx="13.497" cy="13.497" rx="13.497" ry="13.497" transform="translate(199.325 146.785) rotate(83)" fill="rgba(241,238,48,0.62)"/>
        <ellipse id="Ellipse_47-6" data-name="Ellipse 47" cx="7.498" cy="7.498" rx="7.498" ry="7.498" transform="translate(29.881 238.164) rotate(83)" fill="rgba(241,238,48,0.62)"/>
        <ellipse id="Ellipse_48-6" data-name="Ellipse 48" cx="11.997" cy="11.997" rx="11.997" ry="11.997" transform="translate(84.434 189.737) rotate(83)" fill="rgba(241,238,48,0.62)"/>
        <ellipse id="Ellipse_49-6" data-name="Ellipse 49" cx="7.498" cy="7.498" rx="7.498" ry="7.498" transform="translate(30.178 117.19) rotate(83)" fill="rgba(241,238,48,0.62)"/>
        <ellipse id="Ellipse_50-6" data-name="Ellipse 50" cx="11.997" cy="11.998" rx="11.997" ry="11.998" transform="translate(59.547 111.654) rotate(-60)" fill="rgba(241,238,48,0.62)"/>
        <ellipse id="Ellipse_51-6" data-name="Ellipse 51" cx="7.498" cy="7.499" rx="7.498" ry="7.499" transform="translate(9.173 81.245) rotate(-60)" fill="rgba(241,238,48,0.62)"/>
        <ellipse id="Ellipse_52-6" data-name="Ellipse 52" cx="5.499" cy="5.499" rx="5.499" ry="5.499" transform="translate(72.457 69.841) rotate(-60)" fill="rgba(241,238,48,0.62)"/>
        <ellipse id="Ellipse_53-6" data-name="Ellipse 53" cx="13.497" cy="13.498" rx="13.497" ry="13.498" transform="translate(0.007 127.291) rotate(-60)" fill="rgba(241,238,48,0.62)"/>
        <ellipse id="Ellipse_54-6" data-name="Ellipse 54" cx="7.498" cy="7.499" rx="7.498" ry="7.499" transform="translate(37.313 37.947) rotate(-60)" fill="rgba(241,238,48,0.62)"/>
        <ellipse id="Ellipse_55-6" data-name="Ellipse 55" cx="11.997" cy="11.998" rx="11.997" ry="11.998" transform="translate(167.207 46.827) rotate(-60)" fill="rgba(241,238,48,0.62)"/>
        <ellipse id="Ellipse_56-6" data-name="Ellipse 56" cx="7.498" cy="7.499" rx="7.498" ry="7.499" transform="translate(169.069 134.32) rotate(-60)" fill="rgba(241,238,48,0.62)"/>
        <ellipse id="Ellipse_57-6" data-name="Ellipse 57" cx="11.999" cy="11.998" rx="11.999" ry="11.998" transform="translate(271.009 204.468) rotate(-171)" fill="rgba(241,238,48,0.62)"/>
        <ellipse id="Ellipse_58-6" data-name="Ellipse 58" cx="7.499" cy="7.499" rx="7.499" ry="7.499" transform="translate(87.304 257.205) rotate(-171)" fill="rgba(241,238,48,0.62)"/>
        <ellipse id="Ellipse_59-6" data-name="Ellipse 59" cx="5.5" cy="5.499" rx="5.5" ry="5.499" transform="translate(69.426 208.751) rotate(-171)" fill="rgba(241,238,48,0.62)"/>
        <ellipse id="Ellipse_60-6" data-name="Ellipse 60" cx="13.499" cy="13.498" rx="13.499" ry="13.498" transform="translate(304.568 248.286) rotate(-171)" fill="rgba(241,238,48,0.62)"/>
        <ellipse id="Ellipse_61-6" data-name="Ellipse 61" cx="7.499" cy="7.499" rx="7.499" ry="7.499" transform="translate(111.371 249.384) rotate(-171)" fill="rgba(241,238,48,0.62)"/>
        <ellipse id="Ellipse_62-6" data-name="Ellipse 62" cx="11.999" cy="11.998" rx="11.999" ry="11.998" transform="translate(271.009 27.529) rotate(-171)" fill="rgba(241,238,48,0.62)"/>
        <ellipse id="Ellipse_63-6" data-name="Ellipse 63" cx="7.499" cy="7.499" rx="7.499" ry="7.499" transform="translate(87.293 80.227) rotate(-171)" fill="rgba(241,238,48,0.62)"/>
        <ellipse id="Ellipse_64-6" data-name="Ellipse 64" cx="5.5" cy="5.499" rx="5.5" ry="5.499" transform="translate(69.415 31.812) rotate(-171)" fill="rgba(241,238,48,0.62)"/>
        <ellipse id="Ellipse_65-6" data-name="Ellipse 65" cx="13.499" cy="13.498" rx="13.499" ry="13.498" transform="translate(304.568 71.319) rotate(-171)" fill="rgba(241,238,48,0.62)"/>
        <ellipse id="Ellipse_66-6" data-name="Ellipse 66" cx="7.499" cy="7.499" rx="7.499" ry="7.499" transform="translate(111.36 72.407) rotate(-171)" fill="rgba(241,238,48,0.62)"/>
      </g>
    </g>
  </g>
</svg>
